<svg width="23" height="23" viewBox="0 0 23 23" fill="none" xmlns="http://www.w3.org/2000/svg">
<path d="M1.5 9.54596C0.671573 9.54596 0 10.2175 0 11.046C0 11.8744 0.671573 12.546 1.5 12.546V11.046V9.54596ZM22.3596 12.1066C22.9454 11.5208 22.9454 10.5711 22.3596 9.9853L12.8137 0.439358C12.2279 -0.146429 11.2782 -0.146429 10.6924 0.439358C10.1066 1.02514 10.1066 1.97489 10.6924 2.56068L19.1777 11.046L10.6924 19.5312C10.1066 20.117 10.1066 21.0668 10.6924 21.6526C11.2782 22.2383 12.2279 22.2383 12.8137 21.6526L22.3596 12.1066ZM1.5 11.046V12.546L21.299 12.546V11.046V9.54596L1.5 9.54596V11.046Z" fill="#83E087"/>
</svg>
