<svg width="76" height="76" viewBox="0 0 76 76" fill="none" xmlns="http://www.w3.org/2000/svg">
<circle cx="37.6554" cy="37.6554" r="36.9948" stroke="#43A047" stroke-width="1.32124"/>
<path d="M40.4477 21.1399C42.4172 21.1451 43.4168 21.1556 44.2799 21.1802L44.6195 21.1924C45.0117 21.2064 45.3985 21.2239 45.866 21.2449C47.7287 21.3325 48.9996 21.6266 50.1148 22.059C51.2702 22.5036 52.2436 23.1059 53.2169 24.0775C54.1075 24.9523 54.7963 26.011 55.2354 27.1796C55.6678 28.2948 55.9619 29.5657 56.0495 31.4302C56.0705 31.8959 56.088 32.2827 56.102 32.6766L56.1125 33.0163C56.1387 33.8776 56.1493 34.8772 56.1528 36.8467L56.1545 38.1527V40.446C56.1588 41.7229 56.1453 42.9998 56.1142 44.2764L56.1037 44.616C56.0897 45.0099 56.0722 45.3968 56.0512 45.8625C55.9637 47.7269 55.6661 48.9961 55.2354 50.1131C54.7963 51.2817 54.1075 52.3403 53.2169 53.2152C52.3421 54.1057 51.2834 54.7946 50.1148 55.2337C48.9996 55.6661 47.7287 55.9602 45.866 56.0477L44.6195 56.1003L44.2799 56.1108C43.4168 56.1353 42.4172 56.1475 40.4477 56.151L39.1417 56.1528H36.8501C35.5726 56.1573 34.2951 56.1439 33.018 56.1125L32.6784 56.102C32.2628 56.0863 31.8473 56.0682 31.4319 56.0477C29.5692 55.9602 28.2983 55.6661 27.1813 55.2337C26.0134 54.7944 24.9553 54.1055 24.081 53.2152C23.1898 52.3405 22.5003 51.2818 22.0607 50.1131C21.6283 48.9979 21.3342 47.7269 21.2467 45.8625L21.1941 44.616L21.1854 44.2764C21.1531 42.9999 21.1385 41.7229 21.1416 40.446V36.8467C21.1368 35.5698 21.1496 34.2928 21.1801 33.0163L21.1924 32.6766C21.2064 32.2827 21.2239 31.8959 21.2449 31.4302C21.3324 29.5657 21.6265 28.2965 22.059 27.1796C22.4996 26.0105 23.1903 24.9518 24.0827 24.0775C24.9565 23.1874 26.014 22.4985 27.1813 22.059C28.2983 21.6266 29.5675 21.3325 31.4319 21.2449C31.8976 21.2239 32.2862 21.2064 32.6784 21.1924L33.018 21.1819C34.2945 21.1508 35.5715 21.1374 36.8484 21.1416L40.4477 21.1399ZM38.6481 29.8931C36.3266 29.8931 34.1001 30.8153 32.4586 32.4569C30.8171 34.0984 29.8948 36.3248 29.8948 38.6463C29.8948 40.9678 30.8171 43.1943 32.4586 44.8358C34.1001 46.4773 36.3266 47.3996 38.6481 47.3996C40.9696 47.3996 43.196 46.4773 44.8375 44.8358C46.4791 43.1943 47.4013 40.9678 47.4013 38.6463C47.4013 36.3248 46.4791 34.0984 44.8375 32.4569C43.196 30.8153 40.9696 29.8931 38.6481 29.8931ZM38.6481 33.3944C39.3378 33.3943 40.0207 33.53 40.658 33.7938C41.2952 34.0577 41.8742 34.4444 42.362 34.932C42.8498 35.4196 43.2367 35.9985 43.5008 36.6357C43.7648 37.2728 43.9008 37.9558 43.9009 38.6455C43.901 39.3352 43.7653 40.0181 43.5014 40.6554C43.2376 41.2926 42.8508 41.8716 42.3632 42.3594C41.8756 42.8472 41.2967 43.2341 40.6596 43.4982C40.0224 43.7622 39.3395 43.8982 38.6498 43.8983C37.2569 43.8983 35.9211 43.3449 34.9361 42.36C33.9512 41.3751 33.3979 40.0392 33.3979 38.6463C33.3979 37.2534 33.9512 35.9176 34.9361 34.9327C35.9211 33.9477 37.2569 33.3944 38.6498 33.3944M47.8407 27.2671C47.2603 27.2671 46.7037 27.4977 46.2933 27.9081C45.8829 28.3185 45.6524 28.8751 45.6524 29.4555C45.6524 30.0358 45.8829 30.5924 46.2933 31.0028C46.7037 31.4132 47.2603 31.6438 47.8407 31.6438C48.4211 31.6438 48.9777 31.4132 49.3881 31.0028C49.7984 30.5924 50.029 30.0358 50.029 29.4555C50.029 28.8751 49.7984 28.3185 49.3881 27.9081C48.9777 27.4977 48.4211 27.2671 47.8407 27.2671Z" fill="#43A047"/>
</svg>
