<svg width="12" height="12" viewBox="0 0 12 12" fill="none" xmlns="http://www.w3.org/2000/svg">
<path d="M0.287375 10.1031C-0.0959487 10.4864 -0.0959487 11.1079 0.287375 11.4912C0.6707 11.8746 1.29219 11.8746 1.67552 11.4912L0.981445 10.7972L0.287375 10.1031ZM11.7786 0.981552C11.7786 0.439449 11.3392 -1.17243e-05 10.7971 -1.14292e-05L1.96301 -1.10921e-05C1.42091 -1.10921e-05 0.981445 0.439449 0.981445 0.981552C0.981445 1.52365 1.42091 1.96311 1.96301 1.96311L9.81551 1.96311L9.81551 9.81562C9.81551 10.3577 10.255 10.7972 10.7971 10.7972C11.3392 10.7972 11.7786 10.3577 11.7786 9.81562L11.7786 0.981552ZM0.981445 10.7972L1.67552 11.4912L11.4911 1.67562L10.7971 0.981552L10.103 0.287482L0.287375 10.1031L0.981445 10.7972Z" fill="#43A047"/>
</svg>
