<svg width="30" height="30" viewBox="0 0 30 30" fill="none" xmlns="http://www.w3.org/2000/svg">
<path d="M16.6128 2C18.1035 2.00397 18.86 2.01192 19.5133 2.03047L19.7703 2.03975C20.0671 2.05035 20.3599 2.0636 20.7137 2.0795C22.1235 2.14575 23.0854 2.36835 23.9295 2.69562C24.804 3.03217 25.5407 3.48797 26.2774 4.22335C26.9514 4.88549 27.4728 5.68677 27.8051 6.57124C28.1324 7.41527 28.355 8.37722 28.4212 9.78834C28.4371 10.1408 28.4504 10.4336 28.461 10.7317L28.4689 10.9888C28.4888 11.6407 28.4967 12.3973 28.4994 13.8879L28.5007 14.8763V16.6121C28.5039 17.5785 28.4938 18.545 28.4702 19.5112L28.4623 19.7682C28.4517 20.0664 28.4384 20.3592 28.4225 20.7116C28.3563 22.1227 28.131 23.0834 27.8051 23.9287C27.4728 24.8132 26.9514 25.6145 26.2774 26.2766C25.6152 26.9506 24.8139 27.472 23.9295 27.8043C23.0854 28.1316 22.1235 28.3542 20.7137 28.4205L19.7703 28.4602L19.5133 28.4682C18.86 28.4867 18.1035 28.496 16.6128 28.4986L15.6244 28.5H13.89C12.9231 28.5034 11.9562 28.4932 10.9895 28.4695L10.7325 28.4615C10.418 28.4496 10.1035 28.4359 9.78909 28.4205C8.37929 28.3542 7.41735 28.1316 6.572 27.8043C5.688 27.4718 4.88719 26.9505 4.22543 26.2766C3.55093 25.6146 3.0291 24.8133 2.69638 23.9287C2.3691 23.0847 2.1465 22.1227 2.08025 20.7116L2.0405 19.7682L2.03388 19.5112C2.00945 18.545 1.99841 17.5786 2.00075 16.6121V13.8879C1.99709 12.9214 2.0068 11.955 2.0299 10.9888L2.03918 10.7317C2.04978 10.4336 2.06303 10.1408 2.07893 9.78834C2.14518 8.37722 2.36778 7.41659 2.69505 6.57124C3.02855 5.68641 3.5513 4.8851 4.22675 4.22335C4.88813 3.54965 5.68847 3.0283 6.572 2.69562C7.41735 2.36835 8.37797 2.14575 9.78909 2.0795C10.1415 2.0636 10.4357 2.05035 10.7325 2.03975L10.9895 2.0318C11.9557 2.00826 12.9222 1.9981 13.8886 2.00132L16.6128 2ZM15.2507 8.62499C13.4937 8.62499 11.8086 9.32298 10.5662 10.5654C9.32373 11.8078 8.62574 13.4929 8.62574 15.25C8.62574 17.007 9.32373 18.6921 10.5662 19.9346C11.8086 21.177 13.4937 21.875 15.2507 21.875C17.0078 21.875 18.6929 21.177 19.9353 19.9346C21.1777 18.6921 21.8757 17.007 21.8757 15.25C21.8757 13.4929 21.1777 11.8078 19.9353 10.5654C18.6929 9.32298 17.0078 8.62499 15.2507 8.62499ZM15.2507 11.275C15.7727 11.2749 16.2896 11.3776 16.7719 11.5773C17.2543 11.777 17.6925 12.0697 18.0617 12.4388C18.4308 12.8078 18.7237 13.246 18.9236 13.7282C19.1234 14.2104 19.2263 14.7273 19.2264 15.2493C19.2265 15.7713 19.1237 16.2882 18.9241 16.7705C18.7244 17.2528 18.4317 17.6911 18.0626 18.0603C17.6936 18.4294 17.2554 18.7223 16.7732 18.9221C16.2909 19.122 15.7741 19.2249 15.2521 19.225C14.1978 19.225 13.1868 18.8062 12.4413 18.0607C11.6959 17.3153 11.2771 16.3042 11.2771 15.25C11.2771 14.1957 11.6959 13.1847 12.4413 12.4392C13.1868 11.6938 14.1978 11.275 15.2521 11.275M22.2083 6.63749C21.769 6.63749 21.3478 6.81199 21.0372 7.1226C20.7265 7.4332 20.5521 7.85448 20.5521 8.29374C20.5521 8.73301 20.7265 9.15428 21.0372 9.46489C21.3478 9.77549 21.769 9.94999 22.2083 9.94999C22.6476 9.94999 23.0688 9.77549 23.3794 9.46489C23.6901 9.15428 23.8645 8.73301 23.8645 8.29374C23.8645 7.85448 23.6901 7.4332 23.3794 7.1226C23.0688 6.81199 22.6476 6.63749 22.2083 6.63749Z" fill="white"/>
</svg>
