<svg width="57" height="57" viewBox="0 0 57 57" fill="none" xmlns="http://www.w3.org/2000/svg">
<circle cx="28.5" cy="28.5" r="28" stroke="white" stroke-opacity="0.21"/>
<path d="M30.6128 16C32.1035 16.004 32.86 16.0119 33.5133 16.0305L33.7703 16.0397C34.0671 16.0503 34.3599 16.0636 34.7137 16.0795C36.1235 16.1457 37.0854 16.3683 37.9295 16.6956C38.804 17.0322 39.5407 17.488 40.2774 18.2233C40.9514 18.8855 41.4728 19.6868 41.8051 20.5712C42.1324 21.4153 42.355 22.3772 42.4212 23.7883C42.4371 24.1408 42.4504 24.4336 42.461 24.7317L42.4689 24.9888C42.4888 25.6407 42.4967 26.3973 42.4994 27.8879L42.5007 28.8763V30.6121C42.5039 31.5785 42.4938 32.545 42.4702 33.5112L42.4623 33.7682C42.4517 34.0664 42.4384 34.3592 42.4225 34.7116C42.3563 36.1227 42.131 37.0834 41.8051 37.9287C41.4728 38.8132 40.9514 39.6145 40.2774 40.2766C39.6152 40.9506 38.8139 41.472 37.9295 41.8043C37.0854 42.1316 36.1235 42.3542 34.7137 42.4205L33.7703 42.4602L33.5133 42.4682C32.86 42.4867 32.1035 42.496 30.6128 42.4986L29.6244 42.5H27.89C26.9231 42.5034 25.9562 42.4932 24.9895 42.4695L24.7325 42.4615C24.418 42.4496 24.1035 42.4359 23.7891 42.4205C22.3793 42.3542 21.4173 42.1316 20.572 41.8043C19.688 41.4718 18.8872 40.9505 18.2254 40.2766C17.5509 39.6146 17.0291 38.8133 16.6964 37.9287C16.3691 37.0847 16.1465 36.1227 16.0803 34.7116L16.0405 33.7682L16.0339 33.5112C16.0095 32.545 15.9984 31.5786 16.0008 30.6121V27.8879C15.9971 26.9214 16.0068 25.955 16.0299 24.9888L16.0392 24.7317C16.0498 24.4336 16.063 24.1408 16.0789 23.7883C16.1452 22.3772 16.3678 21.4166 16.6951 20.5712C17.0285 19.6864 17.5513 18.8851 18.2268 18.2233C18.8881 17.5497 19.6885 17.0283 20.572 16.6956C21.4173 16.3683 22.378 16.1457 23.7891 16.0795C24.1415 16.0636 24.4357 16.0503 24.7325 16.0397L24.9895 16.0318C25.9557 16.0083 26.9222 15.9981 27.8886 16.0013L30.6128 16ZM29.2507 22.625C27.4937 22.625 25.8086 23.323 24.5662 24.5654C23.3237 25.8078 22.6257 27.4929 22.6257 29.25C22.6257 31.007 23.3237 32.6921 24.5662 33.9346C25.8086 35.177 27.4937 35.875 29.2507 35.875C31.0078 35.875 32.6929 35.177 33.9353 33.9346C35.1777 32.6921 35.8757 31.007 35.8757 29.25C35.8757 27.4929 35.1777 25.8078 33.9353 24.5654C32.6929 23.323 31.0078 22.625 29.2507 22.625ZM29.2507 25.275C29.7727 25.2749 30.2896 25.3776 30.7719 25.5773C31.2543 25.777 31.6925 26.0697 32.0617 26.4388C32.4308 26.8078 32.7237 27.246 32.9236 27.7282C33.1234 28.2104 33.2263 28.7273 33.2264 29.2493C33.2265 29.7713 33.1237 30.2882 32.9241 30.7705C32.7244 31.2528 32.4317 31.6911 32.0626 32.0603C31.6936 32.4294 31.2554 32.7223 30.7732 32.9221C30.2909 33.122 29.7741 33.2249 29.2521 33.225C28.1978 33.225 27.1868 32.8062 26.4413 32.0607C25.6959 31.3153 25.2771 30.3042 25.2771 29.25C25.2771 28.1957 25.6959 27.1847 26.4413 26.4392C27.1868 25.6938 28.1978 25.275 29.2521 25.275M36.2083 20.6375C35.769 20.6375 35.3478 20.812 35.0372 21.1226C34.7265 21.4332 34.5521 21.8545 34.5521 22.2937C34.5521 22.733 34.7265 23.1543 35.0372 23.4649C35.3478 23.7755 35.769 23.95 36.2083 23.95C36.6476 23.95 37.0688 23.7755 37.3794 23.4649C37.6901 23.1543 37.8645 22.733 37.8645 22.2937C37.8645 21.8545 37.6901 21.4332 37.3794 21.1226C37.0688 20.812 36.6476 20.6375 36.2083 20.6375Z" fill="white"/>
</svg>
