<svg width="56" height="56" viewBox="0 0 56 56" fill="none" xmlns="http://www.w3.org/2000/svg">
<rect width="56" height="56" rx="28" fill="#43A047"/>
<path d="M17.8182 35.8826C17.1832 36.5175 17.1832 37.5469 17.8182 38.1818C18.4531 38.8168 19.4825 38.8168 20.1174 38.1818L18.9678 37.0322L17.8182 35.8826ZM38.6581 18.9677C38.6581 18.0698 37.9302 17.3419 37.0323 17.3419L22.4 17.3419C21.5021 17.3419 20.7742 18.0698 20.7742 18.9677C20.7742 19.8656 21.5021 20.5935 22.4 20.5935L35.4065 20.5935L35.4065 33.6C35.4065 34.4979 36.1344 35.2258 37.0323 35.2258C37.9302 35.2258 38.6581 34.4979 38.6581 33.6L38.6581 18.9677ZM18.9678 37.0322L20.1174 38.1818L38.1819 20.1173L37.0323 18.9677L35.8827 17.8181L17.8182 35.8826L18.9678 37.0322Z" fill="white"/>
</svg>
