<svg width="22" height="22" viewBox="0 0 22 22" fill="none" xmlns="http://www.w3.org/2000/svg">
<path d="M15.1689 12.4923C15.4056 12.4923 15.6325 12.3983 15.7999 12.231C15.9672 12.0636 16.0612 11.8367 16.0612 11.6C16.0612 11.3634 15.9672 11.1364 15.7999 10.9691C15.6325 10.8017 15.4056 10.7077 15.1689 10.7077C14.9322 10.7077 14.7053 10.8017 14.5379 10.9691C14.3706 11.1364 14.2766 11.3634 14.2766 11.6C14.2766 11.8367 14.3706 12.0636 14.5379 12.231C14.7053 12.3983 14.9322 12.4923 15.1689 12.4923ZM15.1689 16.0615C15.4056 16.0615 15.6325 15.9675 15.7999 15.8002C15.9672 15.6329 16.0612 15.4059 16.0612 15.1692C16.0612 14.9326 15.9672 14.7056 15.7999 14.5383C15.6325 14.3709 15.4056 14.2769 15.1689 14.2769C14.9322 14.2769 14.7053 14.3709 14.5379 14.5383C14.3706 14.7056 14.2766 14.9326 14.2766 15.1692C14.2766 15.4059 14.3706 15.6329 14.5379 15.8002C14.7053 15.9675 14.9322 16.0615 15.1689 16.0615ZM11.5997 11.6C11.5997 11.8367 11.5057 12.0636 11.3383 12.231C11.171 12.3983 10.944 12.4923 10.7074 12.4923C10.4707 12.4923 10.2437 12.3983 10.0764 12.231C9.90907 12.0636 9.81505 11.8367 9.81505 11.6C9.81505 11.3634 9.90907 11.1364 10.0764 10.9691C10.2437 10.8017 10.4707 10.7077 10.7074 10.7077C10.944 10.7077 11.171 10.8017 11.3383 10.9691C11.5057 11.1364 11.5997 11.3634 11.5997 11.6ZM11.5997 15.1692C11.5997 15.4059 11.5057 15.6329 11.3383 15.8002C11.171 15.9675 10.944 16.0615 10.7074 16.0615C10.4707 16.0615 10.2437 15.9675 10.0764 15.8002C9.90907 15.6329 9.81505 15.4059 9.81505 15.1692C9.81505 14.9326 9.90907 14.7056 10.0764 14.5383C10.2437 14.3709 10.4707 14.2769 10.7074 14.2769C10.944 14.2769 11.171 14.3709 11.3383 14.5383C11.5057 14.7056 11.5997 14.9326 11.5997 15.1692ZM6.24582 12.4923C6.48248 12.4923 6.70944 12.3983 6.87678 12.231C7.04412 12.0636 7.13813 11.8367 7.13813 11.6C7.13813 11.3634 7.04412 11.1364 6.87678 10.9691C6.70944 10.8017 6.48248 10.7077 6.24582 10.7077C6.00917 10.7077 5.78221 10.8017 5.61487 10.9691C5.44753 11.1364 5.35352 11.3634 5.35352 11.6C5.35352 11.8367 5.44753 12.0636 5.61487 12.231C5.78221 12.3983 6.00917 12.4923 6.24582 12.4923ZM6.24582 16.0615C6.48248 16.0615 6.70944 15.9675 6.87678 15.8002C7.04412 15.6329 7.13813 15.4059 7.13813 15.1692C7.13813 14.9326 7.04412 14.7056 6.87678 14.5383C6.70944 14.3709 6.48248 14.2769 6.24582 14.2769C6.00917 14.2769 5.78221 14.3709 5.61487 14.5383C5.44753 14.7056 5.35352 14.9326 5.35352 15.1692C5.35352 15.4059 5.44753 15.6329 5.61487 15.8002C5.78221 15.9675 6.00917 16.0615 6.24582 16.0615Z" fill="#43A047"/>
<path fill-rule="evenodd" clip-rule="evenodd" d="M6.24706 1.56152C6.42456 1.56152 6.59478 1.63203 6.72028 1.75754C6.84579 1.88304 6.9163 2.05326 6.9163 2.23075V2.91159C7.507 2.89999 8.15749 2.89999 8.87313 2.89999H12.5432C13.2597 2.89999 13.9102 2.89999 14.5009 2.91159V2.23075C14.5009 2.05326 14.5714 1.88304 14.6969 1.75754C14.8224 1.63203 14.9927 1.56152 15.1701 1.56152C15.3476 1.56152 15.5179 1.63203 15.6434 1.75754C15.7689 1.88304 15.8394 2.05326 15.8394 2.23075V2.96869C16.0714 2.98654 16.2912 3.00914 16.4988 3.03651C17.5446 3.17749 18.3914 3.47374 19.0597 4.14119C19.7272 4.80952 20.0234 5.65632 20.1644 6.70211C20.3009 7.71934 20.3009 9.01765 20.3009 10.6577V12.5423C20.3009 14.1823 20.3009 15.4815 20.1644 16.4979C20.0234 17.5436 19.7272 18.3904 19.0597 19.0588C18.3914 19.7262 17.5446 20.0225 16.4988 20.1635C15.4816 20.3 14.1832 20.3 12.5432 20.3H8.87491C7.23485 20.3 5.93565 20.3 4.91931 20.1635C3.87353 20.0225 3.02673 19.7262 2.35839 19.0588C1.69094 18.3904 1.3947 17.5436 1.25371 16.4979C1.11719 15.4806 1.11719 14.1823 1.11719 12.5423V10.6577C1.11719 9.01765 1.11719 7.71845 1.25371 6.70211C1.3947 5.65632 1.69094 4.80952 2.35839 4.14119C3.02673 3.47374 3.87353 3.17749 4.91931 3.03651C5.12752 3.00914 5.34732 2.98654 5.57873 2.96869V2.23075C5.57873 2.05342 5.64911 1.88333 5.77442 1.75785C5.89974 1.63237 6.06973 1.56176 6.24706 1.56152ZM5.09599 4.36337C4.19922 4.48383 3.68168 4.71048 3.30423 5.08792C2.92679 5.46537 2.70014 5.98291 2.57968 6.87968C2.55945 7.03137 2.5422 7.19169 2.52793 7.36063H18.8893C18.875 7.19169 18.8578 7.03107 18.8375 6.87879C18.7171 5.98202 18.4904 5.46448 18.113 5.08703C17.7355 4.70959 17.218 4.48294 16.3203 4.36248C15.4039 4.23934 14.1948 4.23755 12.4932 4.23755H8.92399C7.22236 4.23755 6.01417 4.24023 5.09599 4.36337ZM2.45476 10.7077C2.45476 9.94565 2.45476 9.28266 2.46636 8.69999H18.9508C18.9625 9.28266 18.9625 9.94565 18.9625 10.7077V12.4923C18.9625 14.1939 18.9607 15.403 18.8375 16.3203C18.7171 17.2171 18.4904 17.7346 18.113 18.112C17.7355 18.4895 17.218 18.7161 16.3203 18.8366C15.4039 18.9597 14.1948 18.9615 12.4932 18.9615H8.92399C7.22236 18.9615 6.01417 18.9597 5.09599 18.8366C4.19922 18.7161 3.68168 18.4895 3.30423 18.112C2.92679 17.7346 2.70014 17.2171 2.57968 16.3194C2.45654 15.403 2.45476 14.1939 2.45476 12.4923V10.7077Z" fill="#43A047"/>
</svg>
