<svg width="21" height="21" viewBox="0 0 21 21" fill="none" xmlns="http://www.w3.org/2000/svg">
<g clip-path="url(#clip0_217_4542)">
<path d="M10.4516 0.446167C9.1382 0.446167 7.87857 0.967922 6.94984 1.89665C6.02111 2.82538 5.49935 4.08501 5.49935 5.39843C5.49935 6.71185 6.02111 7.97148 6.94984 8.90021C7.87857 9.82894 9.1382 10.3507 10.4516 10.3507C11.765 10.3507 13.0247 9.82894 13.9534 8.90021C14.8821 7.97148 15.4039 6.71185 15.4039 5.39843C15.4039 4.08501 14.8821 2.82538 13.9534 1.89665C13.0247 0.967922 11.765 0.446167 10.4516 0.446167ZM6.73742 5.39843C6.73742 4.41336 7.12874 3.46864 7.82528 2.7721C8.52183 2.07555 9.46655 1.68423 10.4516 1.68423C11.4367 1.68423 12.3814 2.07555 13.078 2.7721C13.7745 3.46864 14.1658 4.41336 14.1658 5.39843C14.1658 6.3835 13.7745 7.32822 13.078 8.02477C12.3814 8.72131 11.4367 9.11263 10.4516 9.11263C9.46655 9.11263 8.52183 8.72131 7.82528 8.02477C7.12874 7.32822 6.73742 6.3835 6.73742 5.39843ZM4.27243 11.5888C3.94632 11.5873 3.62314 11.6503 3.32143 11.774C3.01973 11.8978 2.74545 12.08 2.51433 12.3101C2.28322 12.5401 2.09983 12.8136 1.9747 13.1147C1.84957 13.4159 1.78515 13.7388 1.78516 14.0649C1.78516 16.1585 2.81647 17.737 4.42843 18.7658C6.01563 19.7773 8.15501 20.2552 10.4516 20.2552C12.7482 20.2552 14.8876 19.7773 16.4748 18.7658C18.0868 17.7382 19.1181 16.1572 19.1181 14.0649C19.1181 13.4082 18.8572 12.7784 18.3928 12.314C17.9285 11.8496 17.2987 11.5888 16.6419 11.5888H4.27243ZM3.02322 14.0649C3.02322 13.3802 3.57788 12.8268 4.27243 12.8268H16.6419C16.9703 12.8268 17.2852 12.9573 17.5174 13.1894C17.7496 13.4216 17.88 13.7365 17.88 14.0649C17.88 15.6855 17.1099 16.8926 15.8087 17.7209C14.484 18.5665 12.5997 19.0172 10.4516 19.0172C8.30357 19.0172 6.41924 18.5665 5.09451 17.7209C3.79454 16.8914 3.02322 15.6868 3.02322 14.0649Z" fill="#43A047"/>
</g>
<defs>
<clipPath id="clip0_217_4542">
<rect width="20.5231" height="20.5231" fill="white"/>
</clipPath>
</defs>
</svg>
