<svg width="29" height="29" viewBox="0 0 29 29" fill="none" xmlns="http://www.w3.org/2000/svg">
<path d="M26.2321 24.5171L21.7492 20.0704C23.4893 17.9008 24.332 15.1468 24.104 12.3749C23.876 9.603 22.5946 7.02379 20.5234 5.16762C18.4521 3.31145 15.7484 2.31941 12.9682 2.39549C10.1879 2.47157 7.5425 3.60998 5.57584 5.57664C3.60918 7.5433 2.47078 10.1887 2.3947 12.969C2.31862 15.7492 3.31066 18.4529 5.16683 20.5242C7.02299 22.5954 9.6022 23.8768 12.3741 24.1048C15.146 24.3328 17.9 23.4901 20.0696 21.75L24.5163 26.1967C24.6286 26.3099 24.7623 26.3998 24.9095 26.4612C25.0568 26.5225 25.2147 26.5541 25.3742 26.5541C25.5337 26.5541 25.6917 26.5225 25.8389 26.4612C25.9862 26.3998 26.1198 26.3099 26.2321 26.1967C26.4499 25.9714 26.5717 25.6702 26.5717 25.3569C26.5717 25.0435 26.4499 24.7424 26.2321 24.5171ZM13.2909 21.75C11.618 21.75 9.98265 21.2539 8.59168 20.3245C7.20072 19.3951 6.11659 18.0741 5.4764 16.5285C4.83621 14.983 4.6687 13.2823 4.99507 11.6415C5.32144 10.0008 6.12702 8.49365 7.30994 7.31073C8.49285 6.12781 9.99999 5.32223 11.6407 4.99586C13.2815 4.6695 14.9822 4.837 16.5277 5.47719C18.0733 6.11738 19.3943 7.20151 20.3237 8.59248C21.2531 9.98344 21.7492 11.6188 21.7492 13.2917C21.7492 15.535 20.8581 17.6864 19.2718 19.2726C17.6856 20.8589 15.5342 21.75 13.2909 21.75Z" fill="#43A047"/>
</svg>
