<svg width="8" height="14" viewBox="0 0 8 14" fill="none" xmlns="http://www.w3.org/2000/svg">
<path fill-rule="evenodd" clip-rule="evenodd" d="M7.37629 7.37629C7.56376 7.18876 7.66907 6.93445 7.66907 6.66929C7.66907 6.40412 7.56376 6.14982 7.37629 5.96229L1.71929 0.305288C1.62704 0.209778 1.5167 0.133596 1.39469 0.0811869C1.27269 0.0287779 1.14147 0.00119157 1.00869 3.77564e-05C0.87591 -0.00111606 0.744231 0.0241859 0.621335 0.0744668C0.498438 0.124748 0.386786 0.199001 0.292893 0.292893C0.199 0.386786 0.124747 0.498438 0.0744663 0.621334C0.0241854 0.744231 -0.00111606 0.87591 3.77571e-05 1.00869C0.00119157 1.14147 0.0287779 1.27269 0.0811869 1.39469C0.133596 1.5167 0.209778 1.62704 0.305288 1.71929L5.25529 6.66929L0.305288 11.6193C0.12313 11.8079 0.0223355 12.0605 0.0246139 12.3227C0.0268924 12.5849 0.132061 12.8357 0.317469 13.0211C0.502877 13.2065 0.75369 13.3117 1.01589 13.314C1.27808 13.3162 1.53069 13.2154 1.71929 13.0333L7.37629 7.37629Z" fill="#83E087"/>
</svg>
