<svg width="33" height="33" viewBox="0 0 33 33" fill="none" xmlns="http://www.w3.org/2000/svg">
<rect width="33" height="33" fill="white"/>
<path d="M16.3401 15.5438C18.1361 15.5438 19.8586 14.8303 21.1286 13.5603C22.3985 12.2904 23.112 10.5679 23.112 8.7719C23.112 6.97589 22.3985 5.25344 21.1286 3.98347C19.8586 2.71349 18.1361 2.00003 16.3401 2.00003C14.5441 2.00003 12.8217 2.71349 11.5517 3.98347C10.2817 5.25344 9.56825 6.97589 9.56825 8.7719C9.56825 10.5679 10.2817 12.2904 11.5517 13.5603C12.8217 14.8303 14.5441 15.5438 16.3401 15.5438ZM20.8547 8.7719C20.8547 9.96924 20.3791 11.1175 19.5324 11.9642C18.6858 12.8108 17.5375 13.2865 16.3401 13.2865C15.1428 13.2865 13.9945 12.8108 13.1478 11.9642C12.3012 11.1175 11.8255 9.96924 11.8255 8.7719C11.8255 7.57456 12.3012 6.42626 13.1478 5.57961C13.9945 4.73296 15.1428 4.25732 16.3401 4.25732C17.5375 4.25732 18.6858 4.73296 19.5324 5.57961C20.3791 6.42626 20.8547 7.57456 20.8547 8.7719ZM29.8839 26.8302C29.8839 29.0875 27.6266 29.0875 27.6266 29.0875H5.05368C5.05368 29.0875 2.79639 29.0875 2.79639 26.8302C2.79639 24.5729 5.05368 17.8011 16.3401 17.8011C27.6266 17.8011 29.8839 24.5729 29.8839 26.8302ZM27.6266 26.8212C27.6243 26.2659 27.2789 24.5955 25.7485 23.0651C24.2768 21.5933 21.5071 20.0583 16.3401 20.0583C11.1732 20.0583 8.40349 21.5933 6.93174 23.0651C5.4013 24.5955 5.05819 26.2659 5.05368 26.8212H27.6266Z" fill="#020D19"/>
</svg>
