<svg width="42" height="42" viewBox="0 0 42 42" fill="none" xmlns="http://www.w3.org/2000/svg">
<rect width="42" height="42" rx="9.6" fill="#43A047"/>
<path d="M29.0396 11.3234C30.0556 10.9684 31.0316 11.9444 30.6766 12.9604L24.7516 29.8904C24.3666 30.9884 22.8366 31.0504 22.3646 29.9874L19.5056 23.5554L23.5296 19.5304C23.6621 19.3883 23.7342 19.2002 23.7308 19.0059C23.7274 18.8116 23.6486 18.6262 23.5112 18.4888C23.3738 18.3514 23.1884 18.2727 22.9941 18.2693C22.7998 18.2658 22.6118 18.338 22.4696 18.4704L18.4446 22.4944L12.0126 19.6354C10.9496 19.1624 11.0126 17.6334 12.1096 17.2484L29.0396 11.3234Z" fill="white"/>
</svg>
