<svg width="27" height="27" viewBox="0 0 27 27" fill="none" xmlns="http://www.w3.org/2000/svg">
<rect width="27" height="27" rx="13.5" fill="#43A047"/>
<path d="M19.5 14.5H14.5V19.5C14.5 19.7652 14.3946 20.0196 14.2071 20.2071C14.0196 20.3946 13.7652 20.5 13.5 20.5C13.2348 20.5 12.9804 20.3946 12.7929 20.2071C12.6054 20.0196 12.5 19.7652 12.5 19.5V14.5H7.5C7.23478 14.5 6.98043 14.3946 6.79289 14.2071C6.60536 14.0196 6.5 13.7652 6.5 13.5C6.5 13.2348 6.60536 12.9804 6.79289 12.7929C6.98043 12.6054 7.23478 12.5 7.5 12.5H12.5V7.5C12.5 7.23478 12.6054 6.98043 12.7929 6.79289C12.9804 6.60536 13.2348 6.5 13.5 6.5C13.7652 6.5 14.0196 6.60536 14.2071 6.79289C14.3946 6.98043 14.5 7.23478 14.5 7.5V12.5H19.5C19.7652 12.5 20.0196 12.6054 20.2071 12.7929C20.3946 12.9804 20.5 13.2348 20.5 13.5C20.5 13.7652 20.3946 14.0196 20.2071 14.2071C20.0196 14.3946 19.7652 14.5 19.5 14.5Z" fill="white"/>
</svg>
