<svg width="24" height="24" viewBox="0 0 24 24" fill="none" xmlns="http://www.w3.org/2000/svg">
<path d="M16.0064 16.1778L16.5178 15.6697L15.33 14.4763L14.8208 14.9844L16.0064 16.1778ZM18.2328 15.4566L20.3762 16.622L21.1782 15.1437L19.0359 13.9795L18.2328 15.4566ZM20.7879 18.937L19.1952 20.5219L20.3807 21.7142L21.9734 20.1304L20.7879 18.937ZM18.2238 21.0311C16.5975 21.1836 12.3914 21.0479 7.83536 16.5188L6.64869 17.7111C11.6197 22.6541 16.3518 22.8964 18.3809 22.7068L18.2238 21.0311ZM7.83536 16.5188C3.49356 12.2006 2.77348 8.56987 2.68375 6.99399L1.00356 7.08933C1.11572 9.07236 2.00741 13.0967 6.64869 17.7111L7.83536 16.5188ZM9.37759 9.58719L9.6995 9.2664L8.51507 8.07412L8.19316 8.39378L9.37759 9.58719ZM9.95523 5.1893L8.54199 3.30049L7.19492 4.30995L8.60816 6.19764L9.95523 5.1893ZM3.78518 2.88885L2.02424 4.63859L3.21091 5.83199L4.97074 4.08226L3.78518 2.88885ZM8.78538 8.99048C8.19092 8.39378 8.19092 8.39378 8.19092 8.39602H8.18868L8.18531 8.40051C8.13201 8.45425 8.08428 8.51325 8.04286 8.5766C7.9823 8.66633 7.91612 8.7841 7.86004 8.93328C7.72351 9.31836 7.6895 9.73234 7.76134 10.1345C7.91163 11.1047 8.58012 12.3868 10.2917 14.0894L11.4784 12.896C9.8756 11.3033 9.49424 10.3342 9.42358 9.87656C9.38993 9.65897 9.4247 9.55129 9.4348 9.52662C9.44153 9.51166 9.44153 9.50942 9.4348 9.51989C9.4248 9.53537 9.41354 9.55 9.40115 9.56363L9.38993 9.57485L9.37872 9.58494L8.78538 8.99048ZM10.2917 14.0894C12.0044 15.792 13.2932 16.456 14.2645 16.6041C14.7614 16.6803 15.1618 16.6198 15.4658 16.5065C15.636 16.4442 15.7951 16.3548 15.9368 16.2418L15.9929 16.1913L16.0008 16.1846L16.0041 16.1812L16.0053 16.179C16.0053 16.179 16.0064 16.1778 15.413 15.5811C14.8186 14.9844 14.822 14.9833 14.822 14.9833L14.8242 14.9811L14.8264 14.9788L14.8332 14.9732L14.8444 14.962L14.887 14.9284C14.8975 14.9216 14.8949 14.9224 14.8792 14.9306C14.8511 14.9407 14.7412 14.9755 14.5202 14.9418C14.0559 14.87 13.0801 14.4887 11.4784 12.896L10.2917 14.0894ZM8.54199 3.29937C7.39793 1.77396 5.1502 1.53169 3.78518 2.88885L4.97074 4.08226C5.56744 3.48892 6.62625 3.55061 7.19492 4.30995L8.54199 3.29937ZM2.68487 6.99512C2.66244 6.60703 2.84078 6.20101 3.21091 5.83311L2.02311 4.63971C1.4208 5.23865 0.946357 6.0866 1.00356 7.08933L2.68487 6.99512ZM19.1952 20.5219C18.8878 20.8292 18.5558 21.0019 18.225 21.0322L18.3809 22.7068C19.2053 22.6294 19.8794 22.2144 20.3818 21.7153L19.1952 20.5219ZM9.6995 9.2664C10.8043 8.16833 10.8862 6.43318 9.95635 5.19042L8.60928 6.19876C9.0613 6.80332 8.994 7.5963 8.51395 8.07524L9.6995 9.2664ZM20.3773 16.6231C21.2937 17.1211 21.4362 18.2943 20.789 18.9382L21.9757 20.1304C23.4786 18.6353 23.0154 16.1419 21.1793 15.1448L20.3773 16.6231ZM16.5178 15.6709C16.9485 15.2424 17.6417 15.137 18.2339 15.4578L19.037 13.9806C17.8212 13.3188 16.3137 13.5016 15.3312 14.4775L16.5178 15.6709Z" fill="white"/>
</svg>
