<svg width="23" height="23" viewBox="0 0 23 23" fill="none" xmlns="http://www.w3.org/2000/svg">
<g clip-path="url(#clip0_154_696)">
<path d="M11.7124 0.5C10.2405 0.5 8.82882 1.08473 7.78801 2.12554C6.74719 3.16636 6.16246 4.57801 6.16246 6.04995C6.16246 7.52189 6.74719 8.93354 7.78801 9.97436C8.82882 11.0152 10.2405 11.5999 11.7124 11.5999C13.1844 11.5999 14.596 11.0152 15.6368 9.97436C16.6776 8.93354 17.2624 7.52189 17.2624 6.04995C17.2624 4.57801 16.6776 3.16636 15.6368 2.12554C14.596 1.08473 13.1844 0.5 11.7124 0.5ZM7.54995 6.04995C7.54995 4.946 7.9885 3.88726 8.76911 3.10665C9.54972 2.32603 10.6085 1.88749 11.7124 1.88749C12.8164 1.88749 13.8751 2.32603 14.6557 3.10665C15.4363 3.88726 15.8749 4.946 15.8749 6.04995C15.8749 7.1539 15.4363 8.21264 14.6557 8.99326C13.8751 9.77387 12.8164 10.2124 11.7124 10.2124C10.6085 10.2124 9.54972 9.77387 8.76911 8.99326C7.9885 8.21264 7.54995 7.1539 7.54995 6.04995ZM4.78746 12.9874C4.422 12.9857 4.05981 13.0563 3.72169 13.195C3.38357 13.3337 3.07619 13.5379 2.81718 13.7957C2.55818 14.0536 2.35266 14.36 2.21242 14.6975C2.07218 15.035 2 15.3969 2 15.7624C2 18.1086 3.15578 19.8777 4.96229 21.0307C6.74105 22.1642 9.13862 22.6998 11.7124 22.6998C14.2862 22.6998 16.6838 22.1642 18.4625 21.0307C20.2691 19.879 21.4248 18.1072 21.4248 15.7624C21.4248 15.0264 21.1325 14.3206 20.6121 13.8002C20.0916 13.2798 19.3858 12.9874 18.6499 12.9874H4.78746ZM3.38749 15.7624C3.38749 14.9951 4.00908 14.3749 4.78746 14.3749H18.6499C19.0178 14.3749 19.3708 14.5211 19.631 14.7813C19.8912 15.0415 20.0373 15.3944 20.0373 15.7624C20.0373 17.5786 19.1743 18.9314 17.7161 19.8596C16.2315 20.8073 14.1197 21.3123 11.7124 21.3123C9.30512 21.3123 7.19337 20.8073 5.70875 19.8596C4.25189 18.93 3.38749 17.58 3.38749 15.7624Z" fill="#43A047"/>
</g>
<defs>
<clipPath id="clip0_154_696">
<rect width="23" height="23" fill="white"/>
</clipPath>
</defs>
</svg>
